<svg width="45" height="46" viewBox="0 0 45 46" fill="none" xmlns="http://www.w3.org/2000/svg">
<path d="M22.4285 0.55249L25.9139 16.337L39.8258 9.36025L30.2601 22.0665L44.1226 29.1511L28.7089 29.211L32.0833 45.0221L22.4285 32.3906L12.7737 45.0221L16.1481 29.211L0.734375 29.1511L14.5969 22.0665L5.03116 9.36025L18.9431 16.337L22.4285 0.55249Z" fill="black"/>
<path d="M22.4285 0.55249L25.9139 16.337L39.8258 9.36025L30.2601 22.0665L44.1226 29.1511L28.7089 29.211L32.0833 45.0221L22.4285 32.3906L12.7737 45.0221L16.1481 29.211L0.734375 29.1511L14.5969 22.0665L5.03116 9.36025L18.9431 16.337L22.4285 0.55249Z" fill="black"/>
</svg>
